#!OML:ASF F:\VICON\USERDATA\INSTALL\rory3\rory3.ASF
:FULLY-SPECIFIED
:DEGREES
81
root -10.9554 15.7593 -6.36202 11.6865 27.9713 3.998
lowerback 29.1882 1.03669 1.38764
upperback 7.38526 2.35052 4.22615
thorax -7.90722 1.188 3.09826
lowerneck -18.2476 4.99916 -2.9392
upperneck 9.36525 8.33149 -6.11098
head 5.9633 3.45987 -0.61776
rclavicle -3.18055e-014 -4.13472e-014
rhumerus -21.1554 -29.6582 -50.9068
rradius 69.8481
rwrist 26.3127
rhand -33.7804 -11.9733
rfingers 7.12502
rthumb -6.96758 -41.8387
lclavicle -3.18055e-014 -4.13472e-014
lhumerus -8.39924 17.6381 71.2403
lradius 61.7873
lwrist -8.56852
lhand -31.3153 39.5646
lfingers 7.12502
lthumb -4.5876 69.4949
rfemur -43.4951 -16.6689 28.1224
rtibia 73.8339
rfoot -30.0842 -9.69088
rtoes 4.80024
lfemur -67.3117 1.1581 -20.8441
ltibia 56.0114
lfoot 5.81669 -15.1504
ltoes -29.6911
82
root -10.8911 15.6541 -6.39578 13.3792 26.01 3.45349
lowerback 27.5462 1.57469 1.61538
upperback 6.93742 2.99946 4.01167
thorax -7.61848 1.48159 2.51996
lowerneck -17.2059 5.21544 -2.12404
upperneck 8.48198 8.44155 -7.0228
head 5.59349 3.53454 -1.05277
rclavicle -3.02153e-014 6.67916e-014
rhumerus -21.8847 -29.4498 -50.9987
rradius 70.2897
rwrist 25.782
rhand -33.7995 -12.3367
rfingers 7.12502
rthumb -6.98605 -42.2014
lclavicle -3.02153e-014 6.67916e-014
lhumerus -7.38477 17.1423 71.4225
lradius 61.5805
lwrist -8.76482
lhand -31.1803 39.0981
lfingers 7.12502
lthumb -4.4572 69.0312
rfemur -46.5838 -14.8513 28.6324
rtibia 74.5018
rfoot -29.3429 -9.27317
rtoes 4.10717
lfemur -69.9167 1.97182 -20.7611
ltibia 54.9772
lfoot 6.88493 -14.0785
ltoes -29.5793
83
root -10.9233 15.7651 -6.28938 11.5208 27.5783 3.89309
lowerback 29.31 1.02283 1.30422
upperback 7.41492 2.31286 4.249
thorax -7.93465 1.17027 3.18534
lowerneck -16.127 5.35634 -1.06938
upperneck 7.51437 8.41597 -8.07617
head 5.20789 3.54886 -1.58201
rclavicle 3.97569e-014 4.13472e-014
rhumerus -22.2538 -29.4434 -51.2096
rradius 70.2309
rwrist 25.9308
rhand -33.8729 -12.5106
rfingers 7.12502
rthumb -7.05684 -42.373
lclavicle 3.97569e-014 4.13472e-014
lhumerus -6.38342 16.5107 71.4542
lradius 61.4641
lwrist -8.70994
lhand -31.4822 41.6297
lfingers 7.12502
lthumb -4.74872 71.5564
rfemur -42.9975 -16.3867 28.0547
rtibia 73.9024
rfoot -30.2366 -9.64898
rtoes 4.71398
lfemur -66.7571 1.02664 -21.2136
ltibia 53.3138
lfoot 7.31513 -15.0416
ltoes -28.0691
84
root -10.8912 15.7422 -6.27023 12.1095 27.0501 3.82353
lowerback 28.7826 1.02192 1.40337
upperback 7.2338 2.30198 4.10396
thorax -7.87358 1.16009 2.97118
lowerneck -17.7468 5.35395 -2.63226
upperneck 9.35704 8.74507 -6.36884
head 5.91194 3.66255 -0.714571
rclavicle -1.27222e-014 3.18055e-015
rhumerus -22.4442 -29.4742 -51.5325
rradius 69.9061
rwrist 26.5249
rhand -33.8829 -12.0326
rfingers 7.12502
rthumb -7.06649 -41.8947
lclavicle -1.27222e-014 3.18055e-015
lhumerus -5.52 16.0591 71.2648
lradius 61.2039
lwrist -8.54891
lhand -31.7765 39.7606
lfingers 7.12502
lthumb -5.03293 69.6808
rfemur -43.8348 -15.9789 28.1299
rtibia 74.1044
rfoot -29.9308 -9.38658
rtoes 4.57969
lfemur -67.366 0.916396 -21.2578
ltibia 52.0293
lfoot 8.21578 -14.6439
ltoes -26.7917
85
root -10.87 15.7523 -6.23399 11.98 26.6504 3.93804
lowerback 29.2153 1.0438 1.29757
upperback 7.1811 2.30317 3.99425
thorax -8.14244 1.15984 2.90668
lowerneck -19.5183 5.29233 -4.29339
upperneck 11.4948 9.04361 -4.51403
head 6.7253 3.76211 0.236703
rclavicle 3.81667e-014 -4.92986e-014
rhumerus -22.747 -29.4686 -51.7166
rradius 69.738
rwrist 26.7158
rhand -33.9171 -11.9952
rfingers 7.12502
rthumb -7.09958 -41.8561
lclavicle 3.81667e-014 -4.92986e-014
lhumerus -4.66839 15.6548 71.1269
lradius 60.9384
lwrist -8.64528
lhand -31.6102 38.8863
lfingers 7.12502
lthumb -4.87239 68.8102
rfemur -43.4053 -15.8263 27.8212
rtibia 73.9488
rfoot -29.8468 -9.13224
rtoes 4.60611
lfemur -66.7898 0.895521 -21.4835
ltibia 50.4891
lfoot 9.03938 -14.6397
ltoes -26.559
86
root -10.8471 15.7523 -6.19669 11.8294 26.3618 3.87326
lowerback 29.3449 1.08835 1.30151
upperback 7.31565 2.36556 4.03983
thorax -8.05742 1.18921 2.93289
lowerneck -20.1113 5.45018 -4.50468
upperneck 12.0793 9.3913 -4.48657
head 7.00424 3.88313 0.344946
rclavicle -3.97569e-014 3.81667e-014
rhumerus -22.9631 -29.5615 -51.8035
rradius 69.7094
rwrist 26.5248
rhand -34.164 -12.4489
rfingers 7.12502
rthumb -7.33784 -42.3017
lclavicle -3.97569e-014 3.81667e-014
lhumerus -3.4533 15.4165 71.2766
lradius 60.4962
lwrist -8.77601
lhand -31.6528 39.6958
lfingers 7.12502
lthumb -4.91349 69.6188
rfemur -43.1804 -15.7569 27.7511
rtibia 74.0905
rfoot -29.9723 -8.87577
rtoes 4.89296
lfemur -66.4797 0.754931 -21.4547
ltibia 49.2833
lfoot 9.59194 -14.6843
ltoes -26.9757
87
root -10.8217 15.75 -6.16214 11.9087 26.1228 3.88476
lowerback 29.173 1.09902 1.23052
upperback 7.46376 2.35315 4.0969
thorax -7.81122 1.18463 3.04356
lowerneck -17.6607 6.0237 -2.14666
upperneck 9.28928 9.66766 -7.32869
head 5.9725 4.05914 -0.993666
rclavicle 2.38542e-014 3.18055e-014
rhumerus -23.1327 -29.7407 -52.0439
rradius 69.7224
rwrist 26.5023
rhand -34.2563 -12.2501
rfingers 7.12502
rthumb -7.42694 -42.0998
lclavicle 2.38542e-014 3.18055e-014
lhumerus -1.98195 15.5679 71.5404
lradius 59.6426
lwrist -9.19215
lhand -31.8478 40.5074
lfingers 7.12502
lthumb -5.10175 70.426
rfemur -43.26 -15.7759 27.6782
rtibia 74.3254
rfoot -30.2068 -8.51595
rtoes 5.51981
lfemur -66.354 0.402602 -21.2726
ltibia 48.1575
lfoot 10.6537 -14.2121
ltoes -23.8434
88
root -10.787 15.7348 -6.13682 12.1023 25.4769 3.63258
lowerback 28.9673 1.20589 1.38424
upperback 7.40978 2.51606 4.06512
thorax -7.77308 1.25684 2.86339
lowerneck -16.8338 6.21163 -1.6226
upperneck 8.47102 9.79343 -8.02475
head 5.64574 4.14675 -1.31143
rclavicle 7.63333e-014 2.06736e-014
rhumerus -23.6675 -29.8453 -52.186
rradius 69.7644
rwrist 26.3476
rhand -34.4773 -11.9822
rfingers 7.12502
rthumb -7.64027 -41.8242
lclavicle 7.63333e-014 2.06736e-014
lhumerus -0.744234 15.2208 71.7199
lradius 59.1782
lwrist -9.18976
lhand -32.1026 42.451
lfingers 7.12502
lthumb -5.34776 72.3635
rfemur -43.5982 -15.3744 27.8198
rtibia 74.6006
rfoot -30.1103 -8.38227
rtoes 5.82695
lfemur -66.5888 0.284396 -20.7577
ltibia 47.1768
lfoot 12.1827 -13.4625
ltoes -18.0674
89
root -10.7516 15.6937 -6.11543 12.6186 24.525 3.24263
lowerback 28.3729 1.43703 1.43257
upperback 7.27447 2.7927 4.05316
thorax -7.64679 1.38305 2.73249
lowerneck -16.5673 6.28096 -1.52736
upperneck 8.27664 9.86707 -8.24001
head 5.56047 4.18669 -1.39513
rclavicle -2.70347e-014 -1.90833e-014
rhumerus -24.0549 -29.8299 -52.3543
rradius 69.7673
rwrist 26.0905
rhand -34.5126 -12.3152
rfingers 7.12502
rthumb -7.6743 -42.156
lclavicle -2.70347e-014 -1.90833e-014
lhumerus 0.200444 14.9242 71.7224
lradius 58.9188
lwrist -9.04959
lhand -31.9556 40.5436
lfingers 7.12502
lthumb -5.20585 70.4596
rfemur -44.4774 -14.6359 28.1863
rtibia 74.9655
rfoot -29.8679 -8.58391
rtoes 5.16618
lfemur -67.5969 0.517755 -20.3812
ltibia 46.2686
lfoot 13.4289 -13.2147
ltoes -19.4887
90
root -10.7119 15.6759 -6.09082 12.9116 23.8541 3.07597
lowerback 28.0074 1.53408 1.54686
upperback 7.26698 2.92123 3.99295
thorax -7.47359 1.44074 2.5607
lowerneck -16.8578 6.32426 -1.66368
upperneck 8.37627 9.97942 -8.2501
head 5.63769 4.22372 -1.35606
rclavicle -2.38542e-014 3.18055e-015
rhumerus -24.209 -29.9529 -52.5904
rradius 69.659
rwrist 25.7193
rhand -34.6191 -12.4003
rfingers 7.12502
rthumb -7.77717 -42.2373
lclavicle -2.38542e-014 3.18055e-015
lhumerus 1.27899 14.6309 71.7629
lradius 58.5488
lwrist -9.10052
lhand -31.6758 38.896
lfingers 7.12502
lthumb -4.93568 68.8185
rfemur -44.888 -14.2638 28.2122
rtibia 75.2422
rfoot -29.7592 -8.32698
rtoes 5.11255
lfemur -68.0955 0.449117 -20.1584
ltibia 45.3552
lfoot 14.5982 -12.9081
ltoes -19.9314
91
root -10.6735 15.6688 -6.06107 12.843 23.4501 3.02975
lowerback 28.2029 1.52107 1.76924
upperback 7.23885 2.95612 3.84652
thorax -7.58278 1.45198 2.25427
lowerneck -16.8869 6.47021 -1.45565
upperneck 8.49596 10.1626 -8.39909
head 5.70563 4.30179 -1.41204
rclavicle -5.725e-014 1.74931e-014
rhumerus -24.9247 -30.1271 -52.7535
rradius 69.7708
rwrist 25.5595
rhand -35.0642 -12.9025
rfingers 7.12502
rthumb -8.20674 -42.7231
lclavicle -5.725e-014 1.74931e-014
lhumerus 2.27045 14.2155 71.6669
lradius 58.153
lwrist -9.18006
lhand -31.7443 38.0582
lfingers 7.12502
lthumb -5.00184 67.9792
rfemur -44.7669 -14.1845 28.064
rtibia 75.4938
rfoot -29.7626 -8.1918
rtoes 4.48667
lfemur -67.8061 0.121331 -19.8109
ltibia 44.4065
lfoot 15.7083 -12.4639
ltoes -19.7236
92
root -10.6424 15.6483 -6.018 12.8072 22.9856 2.86683
lowerback 28.3435 1.54115 1.78092
upperback 7.11418 2.98564 3.79969
thorax -7.78948 1.46187 2.18221
lowerneck -16.5808 6.68533 -1.43113
upperneck 8.59565 10.4305 -8.32002
head 5.69252 4.44235 -1.37095
rclavicle -9.22361e-014 -3.18055e-015
rhumerus -25.7706 -29.9324 -52.9018
rradius 70.0344
rwrist 25.2825
rhand -35.2487 -12.8557
rfingers 7.12502
rthumb -8.38482 -42.6693
lclavicle -9.22361e-014 -3.18055e-015
lhumerus 2.91734 14.0704 71.4703
lradius 57.7672
lwrist -9.36888
lhand -31.4413 36.3656
lfingers 7.12502
lthumb -4.70923 66.2932
rfemur -44.7367 -14.0157 28.1192
rtibia 75.7616
rfoot -29.8328 -8.23535
rtoes 3.59966
lfemur -67.6479 -0.062328 -19.3106
ltibia 43.4674
lfoot 16.7252 -11.8529
ltoes -19.9596
93
root -10.6093 15.6411 -5.96847 12.8314 22.5579 2.86166
lowerback 28.3186 1.57489 1.63173
upperback 7.06127 2.98299 3.78515
thorax -7.84345 1.46071 2.253
lowerneck -16.4744 6.89033 -1.44736
upperneck 8.87554 10.7266 -8.2894
head 5.77137 4.57723 -1.32682
rclavicle -9.54166e-015 -3.49861e-014
rhumerus -26.3318 -29.8291 -52.9725
rradius 70.0183
rwrist 24.8856
rhand -35.0288 -12.8176
rfingers 7.12502
rthumb -8.17257 -42.6396
lclavicle -9.54166e-015 -3.49861e-014
lhumerus 3.6114 14.1506 71.3702
lradius 57.2699
lwrist -9.80043
lhand -31.4471 40.1851
lfingers 7.12502
lthumb -4.71491 70.1126
rfemur -44.6375 -13.9638 27.9909
rtibia 75.9481
rfoot -29.9646 -8.09628
rtoes 3.07324
lfemur -67.4525 -0.275949 -18.9724
ltibia 42.576
lfoot 17.6502 -11.1322
ltoes -19.4622
94
root -10.5664 15.6328 -5.92958 12.8962 22.11 2.89137
lowerback 28.2394 1.57169 1.64567
upperback 7.11961 2.97021 3.74088
thorax -7.7353 1.45396 2.20177
lowerneck -16.8104 6.98974 -1.70963
upperneck 9.26329 10.9445 -8.1174
head 5.93281 4.65828 -1.19375
rclavicle -2.70347e-014 8.90555e-014
rhumerus -26.5078 -29.9572 -53.1739
rradius 69.9165
rwrist 24.5052
rhand -34.9518 -13.5623
rfingers 7.12502
rthumb -8.09825 -43.3871
lclavicle -2.70347e-014 8.90555e-014
lhumerus 4.4453 13.7934 71.2975
lradius 57.1606
lwrist -9.69445
lhand -30.9131 37.9777
lfingers 7.12502
lthumb -4.19921 67.916
rfemur -44.5746 -13.9964 27.7534
rtibia 76.0938
rfoot -30.0666 -7.56221
rtoes 3.53773
lfemur -67.2927 -0.552972 -18.6468
ltibia 41.7361
lfoot 18.3264 -10.4023
ltoes -19.8938
95
root -10.5301 15.6232 -5.88147 12.6091 21.8983 2.78817
lowerback 28.4967 1.46809 1.77494
upperback 7.19756 2.88197 3.74721
thorax -7.76411 1.41008 2.16108
lowerneck -17.0908 7.07158 -2.07681
upperneck 9.61004 11.142 -7.84356
head 6.05853 4.73679 -1.01749
rclavicle 6.20208e-014 -7.95139e-015
rhumerus -26.8421 -29.9402 -53.4291
rradius 69.9882
rwrist 24.1526
rhand -35.0585 -14.5943
rfingers 7.12502
rthumb -8.20119 -44.4152
lclavicle 6.20208e-014 -7.95139e-015
lhumerus 5.23376 13.7839 71.2139
lradius 56.8166
lwrist -9.91001
lhand -32.0698 46.8782
lfingers 7.12502
lthumb -5.31611 76.7915
rfemur -44.0793 -14.2091 27.6699
rtibia 76.1399
rfoot -30.157 -7.41066
rtoes 2.91605
lfemur -66.8206 -0.870964 -18.2313
ltibia 40.9615
lfoot 18.8159 -10.0737
ltoes -20.8599
